# xmcd CD database file
#
# Track frame offsets:
#	150
#	12375
#	28017
#	42592
#	59906
#	79662
#	95089
#	108663
#	125752
#	139227
#	158675
#	171649
#	185905
#	197598
#
# Disc length: 2808 seconds
#
# Revision: 0
# Processed by: cddbd v1.5.2PL0 Copyright (c) Steve Scherf et al.
# Submitted via: CDex 1.70beta2
#
DISCID=d80af60e
DTITLE=Doc Woody - Greatest Hits Of Doc Woody and The River City Ragtime Band
DYEAR=2003
DGENRE=Jazz
TTITLE0=I Found A New Baby
TTITLE1=Sweet Georgia Brown
TTITLE2=Bill Bailey, Won't You Please Come Home
TTITLE3=Five Foot Two (Eyes Of Blue)
TTITLE4=Saint Louis Blues
TTITLE5=Back Home Again In Indiana
TTITLE6=Yes Sir, That's My Baby
TTITLE7=At Sundown
TTITLE8=I'm Looking Over A Four Leaf Clover
TTITLE9=When The Red, Red Robin Comes Bob, Bob, Bobin' Along
TTITLE10=Take Me Out To The Ballgame
TTITLE11=Alexander's Ragtime Band
TTITLE12=Ragtime Cowboy Joe
TTITLE13=When The Saints Go Marching In
EXTD=YEAR: 2003
EXTT0=
EXTT1=
EXTT2=
EXTT3=
EXTT4=
EXTT5=
EXTT6=
EXTT7=
EXTT8=
EXTT9=
EXTT10=
EXTT11=
EXTT12=
EXTT13=
PLAYORDER=
